<?xml version="1.0" encoding="UTF-8" standalone="no"?>
<!-- Created with Inkscape (http://www.inkscape.org/) -->

<svg
   width="16"
   height="16"
   viewBox="0 0 4.2333333 4.2333333"
   version="1.1"
   id="svg1"
   inkscape:version="1.3 (0e150ed, 2023-07-21)"
   sodipodi:docname="request-head.svg"
   xmlns:inkscape="http://www.inkscape.org/namespaces/inkscape"
   xmlns:sodipodi="http://sodipodi.sourceforge.net/DTD/sodipodi-0.dtd"
   xmlns="http://www.w3.org/2000/svg"
   xmlns:svg="http://www.w3.org/2000/svg">
  <sodipodi:namedview
     id="namedview1"
     pagecolor="#505050"
     bordercolor="#eeeeee"
     borderopacity="1"
     inkscape:showpageshadow="0"
     inkscape:pageopacity="0"
     inkscape:pagecheckerboard="0"
     inkscape:deskcolor="#d1d1d1"
     inkscape:document-units="mm"
     showgrid="true"
     inkscape:zoom="18.070188"
     inkscape:cx="6.1427142"
     inkscape:cy="1.2728146"
     inkscape:window-width="1800"
     inkscape:window-height="989"
     inkscape:window-x="0"
     inkscape:window-y="44"
     inkscape:window-maximized="0"
     inkscape:current-layer="layer1">
    <inkscape:grid
       id="grid1"
       units="px"
       originx="0"
       originy="0"
       spacingx="0.26458333"
       spacingy="0.26458333"
       empcolor="#0099e5"
       empopacity="0.30196078"
       color="#0099e5"
       opacity="0.14901961"
       empspacing="4"
       dotted="false"
       gridanglex="30"
       gridanglez="30"
       visible="true" />
    <inkscape:grid
       id="grid2"
       units="px"
       originx="0.13229167"
       originy="0.13229167"
       spacingx="0.26458333"
       spacingy="0.26458333"
       empcolor="#0099e5"
       empopacity="0.30196078"
       color="#0099e5"
       opacity="0.14901961"
       empspacing="1"
       dotted="true"
       gridanglex="30"
       gridanglez="30"
       visible="true" />
  </sodipodi:namedview>
  <defs
     id="defs1" />
  <g
     inkscape:label="Layer 1"
     inkscape:groupmode="layer"
     id="layer1">
    <rect
       style="fill:#64ff64;stroke:#00ff39;stroke-width:0.26458333;stroke-linecap:round;stroke-linejoin:miter;stroke-dasharray:none;stroke-opacity:1;fill-opacity:1"
       id="rect2"
       width="3.4395831"
       height="3.4395831"
       x="0.39687499"
       y="0.39687499" />
    <path
       style="font-size:3.67477px;line-height:1.25;font-family:Contemporary;-inkscape-font-specification:Contemporary;text-align:center;text-anchor:middle;stroke-width:0.0918697"
       d="m 3.0004476,0.83049724 q 0.040422,0 0.069821,0.0293982 0.029398,0.0293982 0.029398,0.0698206 V 3.3036175 q 0,0.040423 -0.029398,0.069821 -0.029398,0.029398 -0.069821,0.029398 H 2.849782 q -0.040422,0 -0.069821,-0.029398 Q 2.7505632,3.34404 2.7505632,3.3036175 V 2.2673324 h -1.293519 v 1.0362851 q 0,0.040423 -0.029398,0.069821 -0.029398,0.029398 -0.069821,0.029398 H 1.2071598 q -0.040422,0 -0.069821,-0.025723 Q 1.107941,3.3477148 1.107941,3.3036175 V 0.92971603 q 0,-0.0404225 0.029398,-0.0698206 0.029398,-0.0293982 0.069821,-0.0293982 h 0.1506656 q 0.040422,0 0.069821,0.0293982 0.029398,0.0293982 0.029398,0.0698206 V 1.936603 h 1.293519 V 0.92971603 q 0,-0.0404225 0.029398,-0.0698206 0.029398,-0.0293982 0.069821,-0.0293982 z"
       id="text2"
       aria-label="H" />
  </g>
</svg>
