<?xml version="1.0" encoding="UTF-8" standalone="no"?>
<!-- Created with Inkscape (http://www.inkscape.org/) -->

<svg
   width="16"
   height="16"
   viewBox="0 0 4.2333333 4.2333333"
   version="1.1"
   id="svg1"
   inkscape:version="1.3 (0e150ed, 2023-07-21)"
   sodipodi:docname="request-options.svg"
   xmlns:inkscape="http://www.inkscape.org/namespaces/inkscape"
   xmlns:sodipodi="http://sodipodi.sourceforge.net/DTD/sodipodi-0.dtd"
   xmlns="http://www.w3.org/2000/svg"
   xmlns:svg="http://www.w3.org/2000/svg">
  <sodipodi:namedview
     id="namedview1"
     pagecolor="#505050"
     bordercolor="#eeeeee"
     borderopacity="1"
     inkscape:showpageshadow="0"
     inkscape:pageopacity="0"
     inkscape:pagecheckerboard="0"
     inkscape:deskcolor="#d1d1d1"
     inkscape:document-units="mm"
     showgrid="true"
     inkscape:zoom="18.070188"
     inkscape:cx="6.1427141"
     inkscape:cy="1.2728146"
     inkscape:window-width="1800"
     inkscape:window-height="989"
     inkscape:window-x="0"
     inkscape:window-y="44"
     inkscape:window-maximized="0"
     inkscape:current-layer="layer1">
    <inkscape:grid
       id="grid1"
       units="px"
       originx="0"
       originy="0"
       spacingx="0.26458333"
       spacingy="0.26458333"
       empcolor="#0099e5"
       empopacity="0.30196078"
       color="#0099e5"
       opacity="0.14901961"
       empspacing="4"
       dotted="false"
       gridanglex="30"
       gridanglez="30"
       visible="true" />
    <inkscape:grid
       id="grid2"
       units="px"
       originx="0.13229167"
       originy="0.13229167"
       spacingx="0.26458333"
       spacingy="0.26458333"
       empcolor="#0099e5"
       empopacity="0.30196078"
       color="#0099e5"
       opacity="0.14901961"
       empspacing="1"
       dotted="true"
       gridanglex="30"
       gridanglez="30"
       visible="true" />
  </sodipodi:namedview>
  <defs
     id="defs1" />
  <g
     inkscape:label="Layer 1"
     inkscape:groupmode="layer"
     id="layer1">
    <rect
       style="fill:#640064;stroke:#c800c7;stroke-width:0.26458333;stroke-linecap:round;stroke-linejoin:miter;stroke-dasharray:none;stroke-opacity:1;fill-opacity:1"
       id="rect2"
       width="3.4395831"
       height="3.4395831"
       x="0.39687499"
       y="0.39687499" />
    <path
       style="font-size:3.67477px;line-height:1.25;font-family:Contemporary;-inkscape-font-specification:Contemporary;text-align:center;text-anchor:middle;fill:#ffffff;stroke-width:0.0918697"
       d="m 2.1038034,0.79374954 q 0.3123554,0 0.5401912,0.13229172 0.2278357,0.13229174 0.3454284,0.36012744 0.1212674,0.224161 0.1286169,0.5034435 0.00735,0.2204862 0.00735,0.3270546 0,0.1065683 -0.00735,0.3270545 Q 3.1070156,2.7230039 2.9857482,2.9508396 2.8681556,3.1750006 2.6403198,3.3072923 2.4161588,3.439584 2.1038034,3.439584 1.7730741,3.439584 1.5893356,3.3330157 1.3651746,3.200724 1.2439072,2.976563 1.1263145,2.7487272 1.1152902,2.4694447 q -0.00367,-0.1102431 -0.00367,-0.3270545 0,-0.2168115 0.00367,-0.3270546 Q 1.1226397,1.5360531 1.2402324,1.3118921 1.3614998,1.0840564 1.5893356,0.95176465 1.8612685,0.79374954 2.1038034,0.79374954 Z M 1.6554814,1.3229164 q -0.1800637,0.1727142 -0.191088,0.5107931 -0.00367,0.1102431 -0.00367,0.3086807 0,0.1984376 0.00367,0.3086807 0.011024,0.3380788 0.191088,0.510793 0.1543404,0.1469908 0.448322,0.1469908 0.2939816,0 0.4740453,-0.1727142 0.1800637,-0.1727142 0.1910881,-0.510793 0.00735,-0.2204862 0.00735,-0.3086807 0,-0.088195 -0.00735,-0.3086807 Q 2.7579124,1.4699072 2.5778487,1.297193 2.397785,1.1244789 2.1038034,1.1244789 q -0.2425349,0 -0.448322,0.1984375 z"
       id="text2"
       aria-label="O" />
  </g>
</svg>
