<?xml version="1.0" encoding="UTF-8" standalone="no"?>
<!-- Created with Inkscape (http://www.inkscape.org/) -->

<svg
   width="16"
   height="16"
   viewBox="0 0 4.2333333 4.2333333"
   version="1.1"
   id="svg1"
   inkscape:version="1.3 (0e150ed, 2023-07-21)"
   sodipodi:docname="request-patch.svg"
   xmlns:inkscape="http://www.inkscape.org/namespaces/inkscape"
   xmlns:sodipodi="http://sodipodi.sourceforge.net/DTD/sodipodi-0.dtd"
   xmlns="http://www.w3.org/2000/svg"
   xmlns:svg="http://www.w3.org/2000/svg">
  <sodipodi:namedview
     id="namedview1"
     pagecolor="#505050"
     bordercolor="#eeeeee"
     borderopacity="1"
     inkscape:showpageshadow="0"
     inkscape:pageopacity="0"
     inkscape:pagecheckerboard="0"
     inkscape:deskcolor="#d1d1d1"
     inkscape:document-units="mm"
     showgrid="true"
     inkscape:zoom="20.822611"
     inkscape:cx="12.678525"
     inkscape:cy="2.1611123"
     inkscape:window-width="1800"
     inkscape:window-height="961"
     inkscape:window-x="0"
     inkscape:window-y="44"
     inkscape:window-maximized="0"
     inkscape:current-layer="layer1">
    <inkscape:grid
       id="grid1"
       units="px"
       originx="0"
       originy="0"
       spacingx="0.26458333"
       spacingy="0.26458333"
       empcolor="#0099e5"
       empopacity="0.30196078"
       color="#0099e5"
       opacity="0.14901961"
       empspacing="4"
       dotted="false"
       gridanglex="30"
       gridanglez="30"
       visible="true" />
    <inkscape:grid
       id="grid2"
       units="px"
       originx="0.13229167"
       originy="0.13229167"
       spacingx="0.26458333"
       spacingy="0.26458333"
       empcolor="#0099e5"
       empopacity="0.30196078"
       color="#0099e5"
       opacity="0.14901961"
       empspacing="1"
       dotted="true"
       gridanglex="30"
       gridanglez="30"
       visible="true" />
  </sodipodi:namedview>
  <defs
     id="defs1" />
  <g
     inkscape:label="Layer 1"
     inkscape:groupmode="layer"
     id="layer1">
    <rect
       style="fill:#6464ff;fill-opacity:1;stroke:#c8c8ff;stroke-width:0.264583;stroke-linecap:round;stroke-linejoin:miter;stroke-dasharray:none;stroke-opacity:1"
       id="rect2"
       width="3.4395831"
       height="3.4395831"
       x="0.39687499"
       y="0.39687499" />
    <path
       style="font-size:2.97622px;line-height:1.25;font-family:Contemporary;-inkscape-font-specification:Contemporary;text-align:center;text-anchor:middle;fill:#ffffff;stroke-width:0.0744057"
       d="m 1.8302109,0.67261798 q 0.3095269,0 0.5119098,0.16071588 0.2053592,0.16071587 0.2053592,0.47024274 0,0.2083354 -0.098215,0.3541702 -0.095239,0.1458347 -0.2589311,0.217264 -0.1607159,0.071429 -0.3601226,0.071429 H 1.2825864 V 2.675614 q 0,0.032738 -0.02381,0.056548 -0.02381,0.02381 -0.056548,0.02381 h -0.122025 q -0.032739,0 -0.056548,-0.02381 -0.0238098,-0.02381 -0.0238098,-0.056548 V 0.75297592 q 0,-0.0327384 0.0238098,-0.0565482 0.02381,-0.0238098 0.056548,-0.0238098 z M 1.8153298,1.6785803 q 0.217264,0 0.3333366,-0.092263 0.1160726,-0.095239 0.1160726,-0.2827409 0,-0.36309883 -0.4494092,-0.36309883 H 1.2825864 V 1.6785803 Z M 4.2468997,2.675614 q 0,0.032738 -0.02381,0.056548 -0.02381,0.02381 -0.056548,0.02381 H 4.0564216 q -0.032738,0 -0.056548,-0.02381 -0.02381,-0.02381 -0.02381,-0.056548 V 1.8898919 q 0,-0.2232165 -0.1101201,-0.339289 -0.1101201,-0.1160726 -0.3065506,-0.1160726 -0.1934543,0 -0.3065507,0.1160726 -0.1101201,0.1160725 -0.1101201,0.339289 V 2.675614 q 0,0.032738 -0.02381,0.056548 -0.02381,0.02381 -0.056548,0.02381 H 2.952244 q -0.032738,0 -0.056548,-0.02381 -0.02381,-0.02381 -0.02381,-0.056548 V 0.72321372 q 0,-0.0327384 0.02381,-0.0565482 0.02381,-0.0238098 0.056548,-0.0238098 h 0.1101201 q 0.032739,0 0.056548,0.0238098 0.02381,0.0238098 0.02381,0.0565482 V 1.3809583 q 0.065477,-0.08631 0.1785732,-0.1428585 0.1160725,-0.059524 0.2827409,-0.059524 0.1875018,0 0.3333366,0.080358 0.1458348,0.080358 0.2261927,0.2321452 0.083334,0.1488109 0.083334,0.3541701 z"
       id="text2"
       transform="scale(0.80990445,1.2347135)"
       aria-label="Ph" />
  </g>
</svg>
