<?xml version="1.0" encoding="UTF-8" standalone="no"?>
<!-- Created with Inkscape (http://www.inkscape.org/) -->

<svg
   width="16"
   height="16"
   viewBox="0 0 4.2333333 4.2333333"
   version="1.1"
   id="svg1"
   inkscape:version="1.3 (0e150ed, 2023-07-21)"
   sodipodi:docname="request-put.svg"
   xmlns:inkscape="http://www.inkscape.org/namespaces/inkscape"
   xmlns:sodipodi="http://sodipodi.sourceforge.net/DTD/sodipodi-0.dtd"
   xmlns="http://www.w3.org/2000/svg"
   xmlns:svg="http://www.w3.org/2000/svg">
  <sodipodi:namedview
     id="namedview1"
     pagecolor="#505050"
     bordercolor="#eeeeee"
     borderopacity="1"
     inkscape:showpageshadow="0"
     inkscape:pageopacity="0"
     inkscape:pagecheckerboard="0"
     inkscape:deskcolor="#d1d1d1"
     inkscape:document-units="mm"
     showgrid="true"
     inkscape:zoom="20.822611"
     inkscape:cx="12.678525"
     inkscape:cy="2.1611123"
     inkscape:window-width="1800"
     inkscape:window-height="961"
     inkscape:window-x="0"
     inkscape:window-y="44"
     inkscape:window-maximized="0"
     inkscape:current-layer="layer1">
    <inkscape:grid
       id="grid1"
       units="px"
       originx="0"
       originy="0"
       spacingx="0.26458333"
       spacingy="0.26458333"
       empcolor="#0099e5"
       empopacity="0.30196078"
       color="#0099e5"
       opacity="0.14901961"
       empspacing="4"
       dotted="false"
       gridanglex="30"
       gridanglez="30"
       visible="true" />
    <inkscape:grid
       id="grid2"
       units="px"
       originx="0.13229167"
       originy="0.13229167"
       spacingx="0.26458333"
       spacingy="0.26458333"
       empcolor="#0099e5"
       empopacity="0.30196078"
       color="#0099e5"
       opacity="0.14901961"
       empspacing="1"
       dotted="true"
       gridanglex="30"
       gridanglez="30"
       visible="true" />
  </sodipodi:namedview>
  <defs
     id="defs1" />
  <g
     inkscape:label="Layer 1"
     inkscape:groupmode="layer"
     id="layer1">
    <rect
       style="fill:#00c8ff;fill-opacity:1;stroke:#00ffff;stroke-width:0.264583;stroke-linecap:round;stroke-linejoin:miter;stroke-dasharray:none;stroke-opacity:1"
       id="rect2-0"
       width="3.4395831"
       height="3.4395831"
       x="0.39687499"
       y="0.39687499" />
    <path
       style="font-size:2.99765px;line-height:1.25;font-family:Contemporary;-inkscape-font-specification:Contemporary;text-align:center;text-anchor:middle;stroke-width:0.0749415"
       d="m 1.8274094,0.6774646 q 0.3117556,0 0.5155958,0.1618731 0.2068378,0.1618731 0.2068378,0.4736287 0,0.2098355 -0.098922,0.3567203 Q 2.3549958,1.8165716 2.1901251,1.8885152 2.028252,1.9604588 1.8274094,1.9604588 H 1.2758418 V 2.694883 q 0,0.032974 -0.023981,0.056955 -0.023981,0.023981 -0.056955,0.023981 H 1.0720016 q -0.032974,0 -0.056955,-0.023981 -0.0239812,-0.023981 -0.0239812,-0.056955 V 0.75840115 q 0,-0.0329741 0.0239812,-0.0569553 0.023981,-0.0239812 0.056955,-0.0239812 z m -0.014988,1.0132057 q 0.2188284,0 0.3357368,-0.092927 0.1169083,-0.095925 0.1169083,-0.2847767 0,-0.3657133 -0.4526451,-0.3657133 H 1.2758418 V 1.6906703 Z M 2.8615968,1.2979781 q 0,-0.032974 0.023981,-0.056955 0.023981,-0.023981 0.056955,-0.023981 h 0.1109131 q 0.032974,0 0.056955,0.023981 0.023981,0.023981 0.023981,0.056955 v 0.7913796 q 0,0.2278214 0.1019201,0.3447298 0.1049178,0.1139106 0.3027627,0.1139106 0.1918496,0 0.2967673,-0.1169083 Q 3.9437484,2.3141815 3.9437484,2.0893577 V 1.2979781 q 0,-0.032974 0.023981,-0.056955 0.023981,-0.023981 0.056955,-0.023981 h 0.110913 q 0.032974,0 0.056955,0.023981 0.023981,0.023981 0.023981,0.056955 V 2.694883 q 0,0.032974 -0.023981,0.056955 -0.023981,0.023981 -0.056955,0.023981 H 4.024685 q -0.032974,0 -0.056955,-0.023981 -0.023981,-0.023981 -0.023981,-0.056955 V 2.6019558 Q 3.7878706,2.805796 3.4941009,2.805796 q -0.2877744,0 -0.4616381,-0.179859 -0.170866,-0.1798589 -0.170866,-0.4916145 z"
       id="text2"
       transform="scale(0.81573706,1.2258852)"
       aria-label="Pu" />
  </g>
</svg>
