<?xml version="1.0" encoding="UTF-8" standalone="no"?>
<!-- Created with Inkscape (http://www.inkscape.org/) -->

<svg
   width="16"
   height="16"
   viewBox="0 0 4.2333333 4.2333333"
   version="1.1"
   id="svg1"
   inkscape:version="1.3 (0e150ed, 2023-07-21)"
   sodipodi:docname="request-get.svg"
   xmlns:inkscape="http://www.inkscape.org/namespaces/inkscape"
   xmlns:sodipodi="http://sodipodi.sourceforge.net/DTD/sodipodi-0.dtd"
   xmlns="http://www.w3.org/2000/svg"
   xmlns:svg="http://www.w3.org/2000/svg">
  <sodipodi:namedview
     id="namedview1"
     pagecolor="#505050"
     bordercolor="#eeeeee"
     borderopacity="1"
     inkscape:showpageshadow="0"
     inkscape:pageopacity="0"
     inkscape:pagecheckerboard="0"
     inkscape:deskcolor="#d1d1d1"
     inkscape:document-units="mm"
     showgrid="true"
     inkscape:zoom="18.070188"
     inkscape:cx="6.1427141"
     inkscape:cy="1.2728146"
     inkscape:window-width="1800"
     inkscape:window-height="989"
     inkscape:window-x="0"
     inkscape:window-y="44"
     inkscape:window-maximized="0"
     inkscape:current-layer="layer1">
    <inkscape:grid
       id="grid1"
       units="px"
       originx="0"
       originy="0"
       spacingx="0.26458333"
       spacingy="0.26458333"
       empcolor="#0099e5"
       empopacity="0.30196078"
       color="#0099e5"
       opacity="0.14901961"
       empspacing="4"
       dotted="false"
       gridanglex="30"
       gridanglez="30"
       visible="true" />
    <inkscape:grid
       id="grid2"
       units="px"
       originx="0.13229167"
       originy="0.13229167"
       spacingx="0.26458333"
       spacingy="0.26458333"
       empcolor="#0099e5"
       empopacity="0.30196078"
       color="#0099e5"
       opacity="0.14901961"
       empspacing="1"
       dotted="true"
       gridanglex="30"
       gridanglez="30"
       visible="true" />
  </sodipodi:namedview>
  <defs
     id="defs1" />
  <g
     inkscape:label="Layer 1"
     inkscape:groupmode="layer"
     id="layer1">
    <rect
       style="fill:#00c800;stroke:#96ff96;stroke-width:0.26458333;stroke-linecap:round;stroke-linejoin:miter;stroke-dasharray:none;stroke-opacity:1;fill-opacity:1"
       id="rect2"
       width="3.4395831"
       height="3.4395831"
       x="0.39687499"
       y="0.39687499" />
    <path
       style="font-size:3.67477px;line-height:1.25;font-family:Contemporary;-inkscape-font-specification:Contemporary;text-align:center;text-anchor:middle;fill:#ffffff;stroke-width:0.0918697"
       d="m 2.118504,0.79374954 q 0.3123555,0 0.5401913,0.11759264 0.2278357,0.11391792 0.3454283,0.28295732 0.1212675,0.1653646 0.128617,0.3086807 0.00367,0.033073 -0.022049,0.058796 -0.025723,0.022049 -0.058796,0.022049 H 2.9012301 q -0.08452,0 -0.1065684,-0.040423 Q 2.6880934,1.3376155 2.5374278,1.2310472 2.390437,1.1244789 2.118504,1.1244789 q -0.3086806,0 -0.4997687,0.1763889 -0.191088,0.1727142 -0.2021123,0.4997688 -0.00367,0.1102431 -0.00367,0.3050059 0,0.1947628 0.00367,0.3050059 0.011024,0.3454284 0.1984375,0.5218173 0.1910881,0.176389 0.5034435,0.176389 0.319705,0 0.5107931,-0.1653646 0.191088,-0.1690395 0.191088,-0.5291669 V 2.3114296 H 2.2912182 q -0.040422,0 -0.069821,-0.029398 -0.029398,-0.029398 -0.029398,-0.069821 V 2.0799191 q 0,-0.040423 0.029398,-0.069821 0.029398,-0.029398 0.069821,-0.029398 h 0.7790513 q 0.040422,0 0.069821,0.029398 0.029398,0.029398 0.029398,0.069821 v 0.3491031 q 0,0.2939817 -0.1249422,0.5254922 Q 2.9196039,3.1823501 2.6807439,3.3109671 2.4455586,3.439584 2.118504,3.439584 1.6113858,3.439584 1.3468023,3.1603015 1.0822189,2.8773442 1.0675198,2.4290222 1.063845,2.3187791 1.063845,2.1056425 q 0,-0.2131367 0.00367,-0.3233798 Q 1.0785441,1.4993054 1.192462,1.2788192 1.3100546,1.0546582 1.5415651,0.92604126 1.7767504,0.79374954 2.118504,0.79374954 Z"
       id="text2"
       aria-label="G" />
  </g>
</svg>
