<?xml version="1.0" encoding="UTF-8" standalone="no"?>
<!-- Created with Inkscape (http://www.inkscape.org/) -->

<svg
   width="16"
   height="16"
   viewBox="0 0 4.2333333 4.2333333"
   version="1.1"
   id="svg1"
   inkscape:version="1.3 (0e150ed, 2023-07-21)"
   sodipodi:docname="request-delete.svg"
   xmlns:inkscape="http://www.inkscape.org/namespaces/inkscape"
   xmlns:sodipodi="http://sodipodi.sourceforge.net/DTD/sodipodi-0.dtd"
   xmlns="http://www.w3.org/2000/svg"
   xmlns:svg="http://www.w3.org/2000/svg">
  <sodipodi:namedview
     id="namedview1"
     pagecolor="#505050"
     bordercolor="#eeeeee"
     borderopacity="1"
     inkscape:showpageshadow="0"
     inkscape:pageopacity="0"
     inkscape:pagecheckerboard="0"
     inkscape:deskcolor="#d1d1d1"
     inkscape:document-units="mm"
     showgrid="true"
     inkscape:zoom="18.070188"
     inkscape:cx="6.1427141"
     inkscape:cy="1.2728146"
     inkscape:window-width="1800"
     inkscape:window-height="989"
     inkscape:window-x="0"
     inkscape:window-y="44"
     inkscape:window-maximized="0"
     inkscape:current-layer="layer1">
    <inkscape:grid
       id="grid1"
       units="px"
       originx="0"
       originy="0"
       spacingx="0.26458333"
       spacingy="0.26458333"
       empcolor="#0099e5"
       empopacity="0.30196078"
       color="#0099e5"
       opacity="0.14901961"
       empspacing="4"
       dotted="false"
       gridanglex="30"
       gridanglez="30"
       visible="true" />
    <inkscape:grid
       id="grid2"
       units="px"
       originx="0.13229167"
       originy="0.13229167"
       spacingx="0.26458333"
       spacingy="0.26458333"
       empcolor="#0099e5"
       empopacity="0.30196078"
       color="#0099e5"
       opacity="0.14901961"
       empspacing="1"
       dotted="true"
       gridanglex="30"
       gridanglez="30"
       visible="true" />
  </sodipodi:namedview>
  <defs
     id="defs1" />
  <g
     inkscape:label="Layer 1"
     inkscape:groupmode="layer"
     id="layer1">
    <rect
       style="fill:#ff6464;stroke:#ff0000;stroke-width:0.26458333;stroke-linecap:round;stroke-linejoin:miter;stroke-dasharray:none;stroke-opacity:1;fill-opacity:1"
       id="rect2"
       width="3.4395831"
       height="3.4395831"
       x="0.39687499"
       y="0.39687499" />
    <path
       style="font-size:3.67477px;line-height:1.25;font-family:Contemporary;-inkscape-font-specification:Contemporary;text-align:center;text-anchor:middle;fill:#ffffff;stroke-width:0.0918697"
       d="M 3.1511115,2.4069736 Q 3.1474367,2.7119795 3.015145,2.9398153 2.8828533,3.1639763 2.6513427,3.2852437 2.4198322,3.4028363 2.1185011,3.4028363 h -0.863571 q -0.040423,0 -0.069821,-0.029398 Q 1.1557113,3.34404 1.1557113,3.3036175 V 0.92971603 q 0,-0.0404225 0.029398,-0.0698206 0.029398,-0.0293982 0.069821,-0.0293982 h 0.8415224 q 0.3050059,0 0.5401912,0.12126741 0.23886,0.11759265 0.3748265,0.34542835 0.1359665,0.224161 0.1396413,0.5291669 0.00367,0.1102431 0.00367,0.2903069 0,0.1800637 -0.00367,0.2903068 z M 1.5048145,1.1612266 V 3.072107 h 0.5953127 q 0.367477,0 0.5291669,-0.191088 0.1653647,-0.1910881 0.1727142,-0.4924192 0.00367,-0.1102431 0.00367,-0.271933 0,-0.1616899 -0.00367,-0.271933 Q 2.7946588,1.5470774 2.6219446,1.3559894 2.4492304,1.1612266 2.0817534,1.1612266 Z"
       id="text2"
       aria-label="D" />
  </g>
</svg>
