<?xml version="1.0" encoding="UTF-8" standalone="no"?>
<svg
   width="32"
   height="32"
   viewBox="0 0 8.4666665 8.4666669"
   version="1.1"
   id="svg20249"
   inkscape:version="1.3 (0e150ed, 2023-07-21)"
   sodipodi:docname="baseicon.svg"
   xmlns:inkscape="http://www.inkscape.org/namespaces/inkscape"
   xmlns:sodipodi="http://sodipodi.sourceforge.net/DTD/sodipodi-0.dtd"
   xmlns="http://www.w3.org/2000/svg"
   xmlns:svg="http://www.w3.org/2000/svg"
   xmlns:rdf="http://www.w3.org/1999/02/22-rdf-syntax-ns#"
   xmlns:cc="http://creativecommons.org/ns#"
   xmlns:dc="http://purl.org/dc/elements/1.1/">
  <defs
     id="defs20243" />
  <sodipodi:namedview
     id="base"
     pagecolor="#ffffff"
     bordercolor="#666666"
     borderopacity="1.0"
     inkscape:pageopacity="0.0"
     inkscape:pageshadow="2"
     inkscape:zoom="32.038411"
     inkscape:cx="12.204101"
     inkscape:cy="20.974823"
     inkscape:document-units="mm"
     inkscape:current-layer="g2"
     showgrid="true"
     units="px"
     inkscape:window-width="1800"
     inkscape:window-height="961"
     inkscape:window-x="0"
     inkscape:window-y="44"
     inkscape:window-maximized="0"
     inkscape:document-rotation="0"
     inkscape:pagecheckerboard="0"
     inkscape:showpageshadow="0"
     inkscape:deskcolor="#d1d1d1">
    <inkscape:grid
       type="xygrid"
       id="grid20794"
       empspacing="4"
       originx="0"
       originy="0"
       spacingy="1.0583333"
       spacingx="1.0583333"
       units="px"
       visible="true" />
    <inkscape:grid
       type="xygrid"
       id="grid20796"
       empspacing="1"
       originy="0.13229167"
       originx="0.13229167"
       dotted="true"
       spacingy="0.26458333"
       spacingx="0.26458333"
       units="px"
       visible="true" />
  </sodipodi:namedview>
  <metadata
     id="metadata20246">
    <rdf:RDF>
      <cc:Work
         rdf:about="">
        <dc:format>image/svg+xml</dc:format>
        <dc:type
           rdf:resource="http://purl.org/dc/dcmitype/StillImage" />
      </cc:Work>
    </rdf:RDF>
  </metadata>
  <g
     inkscape:label="Base"
     inkscape:groupmode="layer"
     id="layer1"
     transform="translate(0,-288.53332)"
     sodipodi:insensitive="true">
    <path
       style="fill:#646464;fill-opacity:1;stroke:none;stroke-width:0.360358;stroke-linecap:round;stroke-linejoin:round;stroke-miterlimit:4;stroke-dasharray:none;stroke-dashoffset:0;stroke-opacity:1;paint-order:normal"
       d="m 4.5072672,291.74432 c -0.5663401,-0.15175 -1.1444399,0.18202 -1.29618,0.74836 l -1.05944,3.9538 a 4.2333333,4.2333333 0 0 0 0.98603,0.4092 4.2333333,4.2333333 0 0 0 5.1847901,-2.99343 4.2333333,4.2333333 0 0 0 0.1406401,-1.05798 z"
       id="rect824-2-2"
       inkscape:connector-curvature="0"
       inkscape:export-filename="/home/victor/newcontemporary.png"
       inkscape:export-xdpi="2165.5593"
       inkscape:export-ydpi="2165.5593" />
    <path
       id="path814-0-9"
       style="opacity:1;fill:#646464;fill-opacity:1;stroke:none;stroke-width:1;stroke-linecap:round;stroke-linejoin:round;stroke-miterlimit:4;stroke-dasharray:none;stroke-dashoffset:0;stroke-opacity:1;paint-order:normal"
       d="M 15.402344,0.00976563 A 15.999999,15.999999 0 0 0 0.54492188,11.857422 15.999999,15.999999 0 0 0 11.859375,31.453125 15.999999,15.999999 0 0 0 31.455078,20.140625 15.999999,15.999999 0 0 0 20.142578,0.54296875 15.999999,15.999999 0 0 0 15.402344,0.00976563 Z M 16,1 A 15,15 0 0 1 31,16 15,15 0 0 1 16,31 15,15 0 0 1 1,16 15,15 0 0 1 16,1 Z"
       transform="matrix(0.26458333,0,0,0.26458333,0,288.53332)" />
  </g>
  <g
     inkscape:groupmode="layer"
     id="iconlayer"
     inkscape:label="Icon">
    <g
       id="g2"
       transform="rotate(-90.026376,5.5597661,5.8177444)">
      <path
         id="path18"
         style="color:#000000;opacity:0.25;fill:#ffffff;stroke-linecap:round;stroke-linejoin:round;-inkscape-stroke:none"
         d="M 6.39031,7.0570843 A 0.13251324,0.13251324 0 0 0 6.4413765,6.876702 L 5.2508097,4.8144486 A 0.13251324,0.13251324 0 0 0 5.1287582,4.7476337 l -1.1805744,0.0724 A 0.13251324,0.13251324 0 0 0 3.8703354,5.0522482 L 6.2432878,7.0452363 A 0.13251324,0.13251324 0 0 0 6.39031,7.0570843 Z M 6.859189,6.786068 A 0.13251324,0.13251324 0 0 0 6.9139383,6.6441305 L 6.1456901,3.7274403 A 0.13251324,0.13251324 0 0 0 5.8990755,3.7032347 L 5.4767529,4.5576703 a 0.13251324,0.13251324 0 0 0 0.00415,0.1240758 L 6.6712148,6.743553 a 0.13251324,0.13251324 0 0 0 0.1879733,0.04252 z" />
      <path
         id="path22"
         style="color:#000000;opacity:0.5;fill:#ffffff;stroke-linecap:round;stroke-linejoin:round;-inkscape-stroke:none"
         d="M 6.39031,7.0570843 A 0.13251324,0.13251324 0 0 0 6.4413765,6.876702 L 5.5144075,5.2714992 A 0.13251324,0.13251324 0 0 0 5.3920978,5.2042366 L 4.4715553,5.2579076 A 0.13251324,0.13251324 0 0 0 4.3947396,5.4919128 L 6.2432878,7.0452363 A 0.13251324,0.13251324 0 0 0 6.39031,7.0570843 Z M 6.8353949,6.7985979 A 0.13251324,0.13251324 0 0 0 6.9139383,6.6441305 L 6.3185495,4.3829777 A 0.13251324,0.13251324 0 0 0 6.0713498,4.3567231 L 5.7436383,5.0193869 a 0.13251324,0.13251324 0 0 0 0.00473,0.1261243 l 0.9228422,1.5980416 a 0.13251324,0.13251324 0 0 0 0.1641805,0.055045 z" />
      <path
         id="path24"
         style="color:#000000;fill:#ffffff;stroke-linecap:round;stroke-linejoin:round;-inkscape-stroke:none"
         d="M 6.8542648,6.7889079 A 0.13251324,0.13251324 0 0 0 6.9139383,6.6441305 L 6.4900327,5.0309571 A 0.13251324,0.13251324 0 0 0 6.2421271,5.0045134 L 6.0082688,5.478228 a 0.13251324,0.13251324 0 0 0 0.00389,0.123628 l 0.659055,1.1416968 a 0.13251324,0.13251324 0 0 0 0.1830512,0.045352 z M 6.3725249,7.0655521 a 0.13251324,0.13251324 0 0 0 0.068856,-0.188849 L 5.7792275,5.7296344 A 0.13251324,0.13251324 0 0 0 5.6571759,5.6628196 l -0.6586347,0.039229 a 0.13251324,0.13251324 0 0 0 -0.076816,0.2340052 l 1.3215621,1.1091824 a 0.13251324,0.13251324 0 0 0 0.1292371,0.020316 z" />
    </g>
  </g>
</svg>
